<?xml version="1.0" encoding="UTF-8" standalone="no"?>
<svg
   width="319.91998pt"
   height="127.919998pt"
   viewBox="0 0 319.91998 127.919998"
   version="1.2"
   id="svg118"
   sodipodi:docname="edm.svg"
   inkscape:version="1.1 (c68e22c387, 2021-05-23)"
   xmlns:inkscape="http://www.inkscape.org/namespaces/inkscape"
   xmlns:sodipodi="http://sodipodi.sourceforge.net/DTD/sodipodi-0.dtd"
   xmlns="http://www.w3.org/2000/svg"
   xmlns:svg="http://www.w3.org/2000/svg">
  <sodipodi:namedview
     id="namedview120"
     pagecolor="#ffffff"
     bordercolor="#666666"
     borderopacity="1.0"
     inkscape:pageshadow="2"
     inkscape:pageopacity="0.0"
     inkscape:pagecheckerboard="0"
     inkscape:document-units="pt"
     showgrid="false"
     inkscape:zoom="3.8517444"
     inkscape:cx="213.27999"
     inkscape:cy="85.286033"
     inkscape:window-width="1856"
     inkscape:window-height="1057"
     inkscape:window-x="56"
     inkscape:window-y="-8"
     inkscape:window-maximized="1"
     inkscape:current-layer="surface16052" />
  <defs
     id="defs39">
    <clipPath
       id="clip1">
      <path
         d="M 29 0 L 305 0 L 305 127.28125 L 29 127.28125 Z M 29 0 "
         id="path9" />
    </clipPath>
    <clipPath
       id="clip2">
      <path
         d="M 22 0 L 50 0 L 50 127.28125 L 22 127.28125 Z M 22 0 "
         id="path12" />
    </clipPath>
    <clipPath
       id="clip3">
      <path
         d="M 17.976562 6.472656 L 27 6.472656 L 27 19 L 17.976562 19 Z M 17.976562 6.472656 "
         id="path15" />
    </clipPath>
    <clipPath
       id="clip4">
      <path
         d="M 286.921875 13.664062 L 295 13.664062 L 295 25.886719 L 286.921875 25.886719 Z M 286.921875 13.664062 "
         id="path18" />
    </clipPath>
    <clipPath
       id="clip5">
      <path
         d="M 29 0 L 126 0 L 126 127.28125 L 29 127.28125 Z M 29 0 "
         id="path21" />
    </clipPath>
    <clipPath
       id="clip6">
      <path
         d="M 42.425781 16 L 51 16 L 51 29 L 42.425781 29 Z M 42.425781 16 "
         id="path24" />
    </clipPath>
    <clipPath
       id="clip7">
      <path
         d="M 42.425781 15.101562 L 52 15.101562 L 52 29 L 42.425781 29 Z M 42.425781 15.101562 "
         id="path27" />
    </clipPath>
    <clipPath
       id="clip8">
      <path
         d="M 50 21 L 58 21 L 58 31.640625 L 50 31.640625 Z M 50 21 "
         id="path30" />
    </clipPath>
    <clipPath
       id="clip9">
      <path
         d="M 112.179688 19 L 121 19 L 121 30 L 112.179688 30 Z M 112.179688 19 "
         id="path33" />
    </clipPath>
    <clipPath
       id="clip10">
      <path
         d="M 112.179688 19 L 122 19 L 122 30.921875 L 112.179688 30.921875 Z M 112.179688 19 "
         id="path36" />
    </clipPath>
  </defs>
  <g
     id="surface16052">
    <rect
       x="0"
       y="0"
       width="319.91998"
       height="127.919998"
       style="fill:rgb(100%,100%,100%);fill-opacity:1;stroke:none;"
       id="rect41" />
    <g
       clip-path="url(#clip1)"
       clip-rule="nonzero"
       id="g45">
      <path
         style="fill:none;stroke-width:1;stroke-linecap:butt;stroke-linejoin:miter;stroke:rgb(0%,0%,0%);stroke-opacity:1;stroke-miterlimit:10;"
         d="M 54.000551 167.999213 L 408.180801 10.592408 "
         transform="matrix(0.719101,0,0,0.719101,0.359551,0.359551)"
         id="path43" />
    </g>
    <path
       style="fill-rule:nonzero;fill:rgb(0%,0%,0%);fill-opacity:1;stroke-width:1;stroke-linecap:butt;stroke-linejoin:miter;stroke:rgb(0%,0%,0%);stroke-opacity:1;stroke-miterlimit:10;"
       d="M 412.977371 8.452149 L 407.528945 13.427979 L 408.180801 10.592408 L 405.6277 9.158326 Z M 412.977371 8.452149 "
       transform="matrix(0.719101,0,0,0.719101,0.359551,0.359551)"
       id="path47" />
    <g
       clip-path="url(#clip2)"
       clip-rule="nonzero"
       id="g51">
      <path
         style="fill:none;stroke-width:1;stroke-linecap:butt;stroke-linejoin:miter;stroke:rgb(0%,0%,0%);stroke-opacity:1;stroke-miterlimit:10;"
         d="M 54.000551 167.999213 L 44.401979 14.362305 "
         transform="matrix(0.719101,0,0,0.719101,0.359551,0.359551)"
         id="path49" />
    </g>
    <path
       style="fill-rule:nonzero;fill:rgb(0%,0%,0%);fill-opacity:1;stroke-width:1;stroke-linecap:butt;stroke-linejoin:miter;stroke:rgb(0%,0%,0%);stroke-opacity:1;stroke-miterlimit:10;"
       d="M 44.070619 9.120301 L 46.841005 15.959351 L 44.401979 14.362305 L 42.180238 16.252686 Z M 44.070619 9.120301 "
       transform="matrix(0.719101,0,0,0.719101,0.359551,0.359551)"
       id="path53" />
    <path
       style=" stroke:none;fill-rule:nonzero;fill:rgb(0%,0%,0%);fill-opacity:1;"
       d="M 22.78125 14.125 C 22.625 14.269531 22.398438 14.421875 22.101562 14.589844 C 21.800781 14.753906 21.488281 14.835938 21.160156 14.835938 C 20.511719 14.835938 19.988281 14.589844 19.597656 14.09375 C 19.207031 13.597656 19.007812 12.960938 18.996094 12.191406 C 18.996094 11.03125 19.394531 9.96875 20.1875 9 C 20.976562 8.027344 21.859375 7.539062 22.824219 7.527344 C 23.308594 7.527344 23.757812 7.792969 24.167969 8.320312 L 24.214844 8.253906 C 24.238281 8.222656 24.261719 8.1875 24.292969 8.15625 C 24.324219 8.121094 24.371094 8.078125 24.433594 8.023438 C 24.492188 7.96875 24.5625 7.929688 24.632812 7.90625 C 24.703125 7.886719 24.789062 7.867188 24.878906 7.859375 C 25.023438 7.859375 25.140625 7.90625 25.234375 8.007812 C 25.328125 8.105469 25.378906 8.210938 25.390625 8.320312 C 25.390625 8.484375 25.097656 9.820312 24.507812 12.324219 C 23.921875 14.824219 23.613281 16.105469 23.582031 16.160156 C 23.398438 16.753906 23 17.246094 22.394531 17.632812 C 21.785156 18.015625 21.089844 18.214844 20.308594 18.226562 C 18.859375 18.226562 18.132812 17.851562 18.132812 17.101562 C 18.132812 16.816406 18.222656 16.5625 18.410156 16.339844 C 18.59375 16.121094 18.832031 16.011719 19.121094 16.011719 C 19.273438 16.011719 19.417969 16.058594 19.550781 16.160156 C 19.6875 16.257812 19.757812 16.429688 19.769531 16.671875 C 19.769531 16.78125 19.757812 16.886719 19.738281 16.984375 C 19.71875 17.085938 19.679688 17.164062 19.628906 17.21875 C 19.578125 17.273438 19.535156 17.328125 19.507812 17.382812 C 19.476562 17.4375 19.4375 17.480469 19.398438 17.515625 L 19.367188 17.546875 L 19.382812 17.546875 C 19.484375 17.582031 19.792969 17.597656 20.308594 17.597656 C 20.699219 17.597656 21.007812 17.53125 21.234375 17.398438 C 21.472656 17.277344 21.695312 17.097656 21.898438 16.855469 C 22.105469 16.613281 22.25 16.351562 22.332031 16.078125 C 22.394531 15.867188 22.476562 15.527344 22.578125 15.050781 C 22.710938 14.523438 22.78125 14.214844 22.78125 14.125 Z M 23.90625 9.414062 L 23.84375 9.230469 C 23.8125 9.109375 23.789062 9.027344 23.769531 8.980469 C 23.746094 8.9375 23.714844 8.859375 23.675781 8.75 C 23.632812 8.640625 23.582031 8.5625 23.519531 8.519531 C 23.460938 8.476562 23.390625 8.414062 23.320312 8.335938 C 23.25 8.261719 23.15625 8.210938 23.042969 8.1875 C 22.929688 8.167969 22.816406 8.148438 22.703125 8.140625 C 22.25 8.140625 21.8125 8.429688 21.390625 9.015625 C 21.082031 9.445312 20.824219 10.101562 20.617188 10.984375 C 20.410156 11.867188 20.308594 12.503906 20.308594 12.902344 C 20.308594 13.773438 20.628906 14.207031 21.265625 14.207031 C 21.84375 14.207031 22.410156 13.820312 22.964844 13.050781 L 23.089844 12.886719 Z M 23.90625 9.414062 "
       id="path55" />
    <g
       clip-path="url(#clip3)"
       clip-rule="nonzero"
       id="g59">
      <path
         style="fill:none;stroke-width:7.256459;stroke-linecap:butt;stroke-linejoin:miter;stroke:rgb(0%,0%,0%);stroke-opacity:0.0157;stroke-miterlimit:4;"
         d="M 311.095869 43.023369 C 300.976899 34.283493 286.304394 25.071191 267.078352 14.914038 C 247.599336 4.993098 227.361398 0.0326276 206.111562 0.0326276 C 164.11784 0.0326276 130.219292 14.914038 104.921869 44.913072 C 79.624446 74.912105 66.72276 113.414802 65.963837 159.948736 C 65.963837 230.103957 91.767209 294.353856 143.120978 352.934646 C 194.221773 411.751649 251.39395 441.278257 313.878585 441.986896 C 345.24739 441.986896 374.339427 425.924421 400.901721 394.035684 L 403.937412 398.051303 C 405.455257 399.941006 406.973103 402.066922 408.996896 403.956625 C 411.02069 406.08254 414.056381 408.680882 418.103969 411.987862 C 421.898582 415.294842 426.452118 417.656971 431.005655 419.074248 C 435.559191 420.255312 441.124624 421.436377 446.943031 421.908802 C 456.303078 421.908802 463.892305 419.074248 469.963686 412.932713 C 476.035068 407.027392 479.323733 400.649645 480.082656 394.035684 C 480.082656 384.114744 461.109588 303.329945 422.910479 151.917499 C 384.964344 0.741266 364.97938 -76.736553 362.955586 -80.043533 C 351.065797 -115.947889 325.262426 -145.710709 286.05142 -169.095783 C 246.587439 -192.244644 201.558026 -204.2915 150.963179 -205.000138 C 57.109739 -205.000138 10.056532 -182.323703 10.056532 -136.970833 C 10.056532 -119.727294 15.874939 -104.373458 28.017703 -90.909325 C 39.907492 -77.681405 55.33892 -71.067444 74.059013 -71.067444 C 83.925008 -71.067444 93.285055 -73.901999 101.886178 -80.043533 C 110.740277 -85.948855 115.293813 -96.342221 116.052735 -110.987418 C 116.052735 -117.601379 115.293813 -123.979126 114.028942 -129.884448 C 112.76407 -136.025982 110.234328 -140.750239 106.945663 -144.057219 C 103.656998 -147.364199 100.874281 -150.67118 99.103462 -153.97816 C 97.079668 -157.28514 94.549926 -159.883481 92.020183 -162.009397 L 89.99639 -163.8991 L 91.008286 -163.8991 C 97.585616 -166.025016 117.570581 -166.969867 150.963179 -166.969867 C 176.260603 -166.969867 196.245567 -162.954248 210.918073 -154.923011 C 226.349501 -147.600412 240.769032 -136.734621 253.923692 -122.089423 C 267.331326 -107.444225 276.691373 -91.617964 282.003832 -75.083063 C 286.05142 -62.327568 291.363878 -41.777049 297.941208 -12.95908 C 306.542332 18.929657 311.095869 37.590473 311.095869 43.023369 Z M 383.952447 327.896082 L 379.90486 338.998087 C 377.881066 346.320686 376.36322 351.281156 375.098349 354.11571 C 373.580504 356.714052 371.55671 361.438309 369.026968 368.052269 C 366.244251 374.666229 362.955586 379.390487 358.907998 381.988828 C 355.113385 384.58717 350.559849 388.366576 346.006313 393.090833 C 341.452776 397.578877 335.381395 400.649645 328.045142 402.066922 C 320.708889 403.247986 313.372637 404.42905 306.036384 404.901476 C 276.691373 404.901476 248.358259 387.421724 221.037042 351.989795 C 201.052077 326.00638 184.355778 286.322618 170.948144 232.938511 C 157.54051 179.554404 150.963179 141.051707 150.963179 116.957995 C 150.963179 64.282527 171.707067 38.062899 212.941866 38.062899 C 250.382053 38.062899 287.063316 61.447972 322.985657 107.981906 L 331.080833 117.902847 Z M 383.952447 327.896082 "
         transform="matrix(0.0154413,0,0,-0.016537,17.977527,14.836477)"
         id="path57" />
    </g>
    <path
       style="fill-rule:nonzero;fill:rgb(0%,0%,0%);fill-opacity:1;stroke-width:10.263733;stroke-linecap:butt;stroke-linejoin:miter;stroke:rgb(0%,0%,0%);stroke-opacity:0.0118;stroke-miterlimit:4;"
       d="M 212.965579 578.056259 L 200.084287 573.04467 C 190.781132 569.703612 177.184213 566.362553 160.009157 563.021494 C 142.834102 559.680435 123.512164 557.341694 102.043345 556.005271 L 83.079221 556.005271 L 83.079221 602.111882 L 102.043345 602.111882 C 133.173133 603.448305 162.156039 608.459893 188.992064 617.146646 C 215.828088 625.833399 234.434398 633.517834 245.168808 640.868164 C 255.545404 648.218493 264.848559 655.568822 273.078273 662.919152 C 274.509528 664.923787 278.445478 665.926104 284.886124 665.926104 C 290.968956 665.926104 296.693975 663.921469 302.06118 659.912199 L 302.06118 360.887438 L 303.134621 60.86036 C 307.786198 56.182877 311.722148 53.175924 314.942471 51.839501 C 318.162794 50.503077 326.392508 49.166654 338.915986 48.164336 C 351.797278 46.827913 372.192657 46.159701 401.175563 46.159701 L 426.938146 46.159701 L 426.938146 0.0530899 L 415.845923 0.0530899 C 401.89119 2.057725 348.934769 3.060043 256.976659 3.060043 C 166.449803 3.060043 113.851195 2.057725 99.896463 0.0530899 L 88.088612 0.0530899 L 88.088612 46.159701 L 113.851195 46.159701 C 128.521555 46.159701 141.402847 46.159701 152.137257 46.159701 C 162.513853 46.159701 171.101381 46.493807 176.826399 47.162019 C 182.909231 47.83023 188.276436 48.832548 192.928014 49.834866 C 197.579591 51.171289 200.442101 51.839501 201.157728 51.839501 C 201.515542 51.839501 203.662424 53.51003 206.882747 56.851089 C 210.460883 60.192148 212.249951 61.528571 212.965579 60.86036 Z M 212.965579 578.056259 "
       transform="matrix(0.010917,0,0,-0.0116917,25.343025,17.317027)"
       id="path61" />
    <path
       style=" stroke:none;fill-rule:nonzero;fill:rgb(0%,0%,0%);fill-opacity:1;"
       d="M 291.722656 20.890625 C 291.570312 21.027344 291.34375 21.171875 291.042969 21.328125 C 290.746094 21.484375 290.433594 21.5625 290.101562 21.5625 C 289.453125 21.5625 288.933594 21.328125 288.542969 20.859375 C 288.152344 20.390625 287.949219 19.789062 287.941406 19.058594 C 287.941406 17.964844 288.335938 16.957031 289.128906 16.039062 C 289.921875 15.121094 290.800781 14.65625 291.769531 14.648438 C 292.253906 14.648438 292.703125 14.898438 293.113281 15.398438 L 293.160156 15.335938 C 293.179688 15.304688 293.207031 15.273438 293.238281 15.242188 C 293.269531 15.210938 293.3125 15.167969 293.375 15.117188 C 293.4375 15.0625 293.503906 15.027344 293.578125 15.007812 C 293.648438 14.984375 293.730469 14.96875 293.824219 14.960938 C 293.96875 14.960938 294.085938 15.007812 294.179688 15.101562 C 294.269531 15.195312 294.324219 15.292969 294.332031 15.398438 C 294.332031 15.554688 294.039062 16.816406 293.453125 19.183594 C 292.867188 21.550781 292.558594 22.761719 292.527344 22.816406 C 292.339844 23.378906 291.945312 23.84375 291.335938 24.207031 C 290.730469 24.574219 290.035156 24.761719 289.253906 24.769531 C 287.800781 24.769531 287.074219 24.414062 287.074219 23.707031 C 287.074219 23.433594 287.167969 23.195312 287.355469 22.988281 C 287.539062 22.777344 287.777344 22.671875 288.0625 22.671875 C 288.21875 22.671875 288.363281 22.722656 288.496094 22.816406 C 288.628906 22.910156 288.703125 23.070312 288.710938 23.300781 C 288.710938 23.402344 288.703125 23.503906 288.683594 23.597656 C 288.660156 23.691406 288.625 23.765625 288.574219 23.816406 C 288.523438 23.867188 288.480469 23.921875 288.449219 23.972656 C 288.417969 24.023438 288.382812 24.066406 288.34375 24.097656 L 288.3125 24.128906 L 288.328125 24.128906 C 288.429688 24.160156 288.738281 24.175781 289.253906 24.175781 C 289.644531 24.175781 289.953125 24.113281 290.179688 23.988281 C 290.417969 23.875 290.636719 23.703125 290.84375 23.472656 C 291.050781 23.242188 291.195312 22.996094 291.277344 22.738281 C 291.335938 22.539062 291.421875 22.214844 291.523438 21.765625 C 291.65625 21.265625 291.722656 20.972656 291.722656 20.890625 Z M 292.851562 16.429688 L 292.789062 16.257812 C 292.757812 16.144531 292.730469 16.066406 292.710938 16.023438 C 292.691406 15.980469 292.660156 15.910156 292.621094 15.804688 C 292.578125 15.699219 292.527344 15.628906 292.464844 15.585938 C 292.402344 15.542969 292.335938 15.488281 292.265625 15.414062 C 292.191406 15.339844 292.097656 15.292969 291.984375 15.273438 C 291.871094 15.253906 291.757812 15.238281 291.644531 15.226562 C 291.195312 15.226562 290.757812 15.503906 290.332031 16.054688 C 290.023438 16.460938 289.769531 17.082031 289.5625 17.917969 C 289.355469 18.75 289.253906 19.355469 289.253906 19.730469 C 289.253906 20.554688 289.570312 20.96875 290.210938 20.96875 C 290.785156 20.96875 291.351562 20.601562 291.910156 19.875 L 292.03125 19.714844 Z M 292.851562 16.429688 "
       id="path63" />
    <g
       clip-path="url(#clip4)"
       clip-rule="nonzero"
       id="g67">
      <path
         style="fill:none;stroke-width:7.669379;stroke-linecap:butt;stroke-linejoin:miter;stroke:rgb(0%,0%,0%);stroke-opacity:0.0157;stroke-miterlimit:4;"
         d="M 310.938797 42.966689 C 301.072669 34.22879 286.399964 24.991582 266.920685 15.005412 C 247.694383 5.019242 227.45617 0.0261565 205.953069 0.0261565 C 163.958778 0.0261565 130.31275 15.005412 105.014984 44.963923 C 79.717219 74.922434 66.56238 113.36919 66.056425 160.054536 C 66.056425 229.957728 91.607169 294.368527 142.961633 353.037278 C 194.316097 411.706028 251.23607 441.414885 313.974529 441.914194 C 345.343759 441.914194 374.436189 425.936321 400.998843 393.980576 L 404.034575 397.975044 C 405.299463 399.972278 407.070307 401.969512 409.094128 403.966746 C 411.117949 405.96398 413.900704 408.710177 417.948346 411.955683 C 421.995989 415.450842 426.296609 417.69773 431.103184 418.946002 C 435.656782 420.443927 440.969313 421.442544 447.040777 421.941853 C 456.40095 421.941853 463.99028 418.946002 470.061743 412.9543 C 475.88023 406.962597 479.421917 400.721241 479.927872 393.980576 C 479.927872 383.994406 460.954548 303.35608 423.007899 152.0656 C 385.061251 0.775119 365.076016 -76.617701 363.052194 -80.11286 C 350.909267 -116.063074 325.358524 -145.77193 285.894009 -168.989776 C 246.682472 -192.457277 201.652449 -204.440681 151.056918 -204.939989 C 56.94923 -204.939989 9.895385 -182.221452 9.895385 -137.034031 C 9.895385 -119.558233 15.966849 -104.329323 28.109777 -91.097648 C 39.999726 -77.616318 55.431364 -70.875653 73.898733 -70.875653 C 84.017839 -70.875653 93.378012 -74.121158 101.979252 -80.11286 C 110.580493 -86.104563 115.387068 -96.340387 115.893024 -111.069988 C 115.893024 -117.560999 115.387068 -124.05201 114.12218 -130.043712 C 112.604314 -136.035414 110.327515 -140.778845 107.038806 -144.02435 C 103.750096 -147.269856 100.967342 -150.765015 98.943521 -154.010521 C 96.919699 -157.256026 94.6429 -160.002223 92.113124 -161.999457 L 90.089303 -163.996691 L 91.101213 -163.996691 C 97.678632 -165.993925 117.663867 -166.992542 151.056918 -166.992542 C 176.354684 -166.992542 196.339919 -162.998074 211.012623 -155.009138 C 226.44426 -147.769164 240.611009 -136.784377 254.018824 -122.054776 C 267.42664 -107.325175 276.786813 -91.596956 282.099344 -75.119775 C 285.894009 -62.387408 291.459518 -41.666105 298.036937 -12.955865 C 306.638177 18.99988 310.938797 37.72395 310.938797 42.966689 Z M 384.04934 328.071852 L 380.001698 339.056639 C 377.977876 346.296613 376.207033 351.289698 374.942144 354.035895 C 373.677256 356.782091 371.653435 361.275868 369.123658 368.016533 C 366.340904 374.757198 363.052194 379.250975 359.004552 381.997172 C 354.956909 384.743368 350.656289 388.238528 346.102691 392.981959 C 341.296116 397.72539 335.224652 400.721241 327.8883 401.969512 C 320.551948 403.217784 313.215596 404.216401 305.879244 404.965363 C 276.786813 404.965363 248.453316 387.239911 220.878751 352.038661 C 200.893516 326.074618 184.449969 286.379591 171.042153 232.953579 C 157.634337 179.777222 151.056918 141.080812 151.056918 117.114004 C 151.056918 64.436955 171.548108 37.973604 213.036444 37.973604 C 250.224159 37.973604 286.90592 61.441104 323.081725 107.876796 L 330.924032 118.112621 Z M 384.04934 328.071852 "
         transform="matrix(0.0154411,0,0,-0.0156466,286.921423,21.562909)"
         id="path65" />
    </g>
    <path
       style="fill-rule:nonzero;fill:rgb(0%,0%,0%);fill-opacity:1;stroke-width:10.847777;stroke-linecap:butt;stroke-linejoin:miter;stroke:rgb(0%,0%,0%);stroke-opacity:0.0118;stroke-miterlimit:4;"
       d="M 108.981008 429.0154 C 91.090085 429.0154 76.777346 435.018401 66.042792 447.024404 C 55.308238 459.030407 49.940961 473.508235 49.940961 491.164122 C 49.940961 538.481899 67.831884 579.443557 102.898094 614.049095 C 138.322122 648.654634 182.333793 665.957403 234.933107 665.957403 C 295.762246 665.957403 346.21465 647.242163 387.005955 610.1648 C 427.79726 572.73432 448.192912 524.357189 448.908549 465.033409 C 448.908549 436.430872 442.467817 408.887688 428.870715 383.110093 C 415.631432 356.979381 399.529601 334.379845 380.923041 314.95837 C 362.316481 295.536894 335.837915 271.17177 301.129523 241.156762 C 277.155686 220.322815 243.520751 189.601572 200.940353 148.993032 L 141.900307 92.847311 L 218.11564 92.141076 C 322.598631 92.141076 378.418312 93.553547 384.859044 97.084724 C 389.510684 98.497195 397.740509 128.159085 408.832881 186.070395 L 408.832881 188.895336 L 448.908549 188.895336 L 448.908549 186.070395 C 448.192912 183.951688 443.899091 153.583562 436.027085 94.966018 C 428.155078 36.348473 423.14562 5.627229 420.998709 3.155405 L 420.998709 -0.0226543 L 49.940961 -0.0226543 L 49.940961 31.051707 C 49.940961 35.642237 52.087872 40.585886 56.023875 45.882652 C 59.959878 51.179418 69.978795 62.832303 86.080626 80.841308 C 105.402823 102.38149 121.862473 121.09673 136.175211 136.987029 C 141.900307 143.696266 153.350498 156.055387 170.167965 174.064391 C 186.627615 192.073396 198.077806 204.432517 204.16072 211.141754 C 209.885815 217.497873 219.546913 228.797641 233.144015 243.981704 C 246.383298 259.165767 255.686578 270.818652 261.053855 277.881007 C 266.421132 285.296479 273.93532 295.183776 283.954237 307.896015 C 293.973154 320.608253 301.129523 331.201786 305.065527 340.029729 C 309.00153 348.504555 314.010988 358.391852 320.093902 368.985384 C 326.176816 379.578916 330.470638 390.172448 332.975367 401.119098 C 335.837915 411.71263 337.984825 421.599927 340.131736 431.134106 C 341.920828 440.315167 342.994284 451.261817 342.994284 463.974056 C 342.994284 505.995067 331.544093 542.366194 309.00153 573.087437 C 286.458966 603.808681 253.897486 618.992744 212.032726 618.992744 C 189.847981 618.992744 170.525784 613.34286 154.066134 602.043092 C 137.248667 590.743324 125.798476 579.796674 118.999925 568.850024 C 112.201374 558.256492 108.981008 551.900373 108.981008 550.134784 C 108.981008 549.428549 110.7701 549.075431 113.990466 549.075431 C 126.156294 549.075431 138.322122 544.4849 150.845768 534.950721 C 163.727233 525.76966 170.167965 510.23248 170.167965 489.045415 C 170.167965 472.448882 164.800688 458.324172 154.066134 447.024404 C 143.331581 435.724637 128.303205 429.721635 108.981008 429.0154 Z M 108.981008 429.0154 "
       transform="matrix(0.0109168,0,0,-0.0110622,294.286833,23.909906)"
       id="path69" />
    <path
       style=" stroke:none;fill-rule:nonzero;fill:rgb(0%,0%,0%);fill-opacity:1;"
       d="M 32 5.753906 L 34.15625 5.753906 L 34.15625 6.472656 L 32 6.472656 M 36.316406 5.753906 L 38.472656 5.753906 L 38.472656 6.472656 L 36.316406 6.472656 M 40.628906 5.753906 L 42.785156 5.753906 L 42.785156 6.472656 L 40.628906 6.472656 M 44.945312 5.753906 L 47.101562 5.753906 L 47.101562 6.472656 L 44.945312 6.472656 M 49.257812 5.753906 L 51.414062 5.753906 L 51.414062 6.472656 L 49.257812 6.472656 M 53.574219 5.753906 L 55.730469 5.753906 L 55.730469 6.472656 L 53.574219 6.472656 M 57.886719 5.753906 L 60.046875 5.753906 L 60.046875 6.472656 L 57.886719 6.472656 M 62.203125 5.753906 L 64.359375 5.753906 L 64.359375 6.472656 L 62.203125 6.472656 M 66.515625 5.753906 L 68.675781 5.753906 L 68.675781 6.472656 L 66.515625 6.472656 M 70.832031 5.753906 L 72.988281 5.753906 L 72.988281 6.472656 L 70.832031 6.472656 M 75.144531 5.753906 L 77.304688 5.753906 L 77.304688 6.472656 L 75.144531 6.472656 M 79.460938 5.753906 L 81.617188 5.753906 L 81.617188 6.472656 L 79.460938 6.472656 M 83.773438 5.753906 L 85.933594 5.753906 L 85.933594 6.472656 L 83.773438 6.472656 M 88.089844 5.753906 L 90.246094 5.753906 L 90.246094 6.472656 L 88.089844 6.472656 M 92.40625 5.753906 L 94.5625 5.753906 L 94.5625 6.472656 L 92.40625 6.472656 M 96.71875 5.753906 L 98.875 5.753906 L 98.875 6.472656 L 96.71875 6.472656 M 101.035156 5.753906 L 103.191406 5.753906 L 103.191406 6.472656 L 101.035156 6.472656 M 105.347656 5.753906 L 107.503906 5.753906 L 107.503906 6.472656 L 105.347656 6.472656 M 109.664062 5.753906 L 111.820312 5.753906 L 111.820312 6.472656 L 109.664062 6.472656 M 113.976562 5.753906 L 116.136719 5.753906 L 116.136719 6.472656 L 113.976562 6.472656 M 118.292969 5.753906 L 120.449219 5.753906 L 120.449219 6.472656 L 118.292969 6.472656 M 122.605469 5.753906 L 124.765625 5.753906 L 124.765625 6.472656 L 122.605469 6.472656 M 126.921875 5.753906 L 129.078125 5.753906 L 129.078125 6.472656 L 126.921875 6.472656 M 131.234375 5.753906 L 133.394531 5.753906 L 133.394531 6.472656 L 131.234375 6.472656 M 135.550781 5.753906 L 137.707031 5.753906 L 137.707031 6.472656 L 135.550781 6.472656 M 139.863281 5.753906 L 142.023438 5.753906 L 142.023438 6.472656 L 139.863281 6.472656 M 144.179688 5.753906 L 146.335938 5.753906 L 146.335938 6.472656 L 144.179688 6.472656 M 148.496094 5.753906 L 150.652344 5.753906 L 150.652344 6.472656 L 148.496094 6.472656 M 152.808594 5.753906 L 154.964844 5.753906 L 154.964844 6.472656 L 152.808594 6.472656 M 157.125 5.753906 L 159.28125 5.753906 L 159.28125 6.472656 L 157.125 6.472656 M 161.4375 5.753906 L 163.59375 5.753906 L 163.59375 6.472656 L 161.4375 6.472656 M 165.753906 5.753906 L 167.910156 5.753906 L 167.910156 6.472656 L 165.753906 6.472656 M 170.066406 5.753906 L 172.226562 5.753906 L 172.226562 6.472656 L 170.066406 6.472656 M 174.382812 5.753906 L 176.539062 5.753906 L 176.539062 6.472656 L 174.382812 6.472656 M 178.695312 5.753906 L 180.855469 5.753906 L 180.855469 6.472656 L 178.695312 6.472656 M 183.011719 5.753906 L 185.167969 5.753906 L 185.167969 6.472656 L 183.011719 6.472656 M 187.324219 5.753906 L 189.484375 5.753906 L 189.484375 6.472656 L 187.324219 6.472656 M 191.640625 5.753906 L 193.796875 5.753906 L 193.796875 6.472656 L 191.640625 6.472656 M 195.953125 5.753906 L 198.113281 5.753906 L 198.113281 6.472656 L 195.953125 6.472656 M 200.269531 5.753906 L 202.425781 5.753906 L 202.425781 6.472656 L 200.269531 6.472656 M 204.585938 5.753906 L 206.742188 5.753906 L 206.742188 6.472656 L 204.585938 6.472656 M 208.898438 5.753906 L 211.054688 5.753906 L 211.054688 6.472656 L 208.898438 6.472656 M 213.214844 5.753906 L 215.371094 5.753906 L 215.371094 6.472656 L 213.214844 6.472656 M 217.527344 5.753906 L 219.683594 5.753906 L 219.683594 6.472656 L 217.527344 6.472656 M 221.84375 5.753906 L 224 5.753906 L 224 6.472656 L 221.84375 6.472656 M 226.15625 5.753906 L 228.316406 5.753906 L 228.316406 6.472656 L 226.15625 6.472656 M 230.472656 5.753906 L 232.628906 5.753906 L 232.628906 6.472656 L 230.472656 6.472656 M 234.785156 5.753906 L 236.945312 5.753906 L 236.945312 6.472656 L 234.785156 6.472656 M 239.101562 5.753906 L 241.257812 5.753906 L 241.257812 6.472656 L 239.101562 6.472656 M 243.414062 5.753906 L 245.574219 5.753906 L 245.574219 6.472656 L 243.414062 6.472656 M 247.730469 5.753906 L 249.886719 5.753906 L 249.886719 6.472656 L 247.730469 6.472656 M 252.046875 5.753906 L 254.203125 5.753906 L 254.203125 6.472656 L 252.046875 6.472656 M 256.359375 5.753906 L 258.515625 5.753906 L 258.515625 6.472656 L 256.359375 6.472656 M 260.675781 5.753906 L 262.832031 5.753906 L 262.832031 6.472656 L 260.675781 6.472656 M 264.988281 5.753906 L 267.144531 5.753906 L 267.144531 6.472656 L 264.988281 6.472656 M 269.304688 5.753906 L 271.460938 5.753906 L 271.460938 6.472656 L 269.304688 6.472656 M 273.617188 5.753906 L 275.773438 5.753906 L 275.773438 6.472656 L 273.617188 6.472656 M 277.933594 5.753906 L 280.089844 5.753906 L 280.089844 6.472656 L 277.933594 6.472656 M 282.246094 5.753906 L 284.40625 5.753906 L 284.40625 6.472656 L 282.246094 6.472656 M 286.5625 5.753906 L 288.71875 5.753906 L 288.71875 6.472656 L 286.5625 6.472656 M 290.875 5.753906 L 293.035156 5.753906 L 293.035156 6.472656 L 290.875 6.472656 M 295.191406 5.753906 L 297.347656 5.753906 L 297.347656 6.472656 L 295.191406 6.472656 "
       id="path71" />
    <g
       clip-path="url(#clip5)"
       clip-rule="nonzero"
       id="g75">
      <path
         style="fill:none;stroke-width:1;stroke-linecap:butt;stroke-linejoin:miter;stroke:rgb(0%,0%,0%);stroke-opacity:1;stroke-miterlimit:10;"
         d="M 54.000551 167.999213 L 160.3888 13.248719 "
         transform="matrix(0.719101,0,0,0.719101,0.359551,0.359551)"
         id="path73" />
    </g>
    <path
       style="fill-rule:nonzero;fill:rgb(0%,0%,0%);fill-opacity:1;stroke-width:1;stroke-linecap:butt;stroke-linejoin:miter;stroke:rgb(0%,0%,0%);stroke-opacity:1;stroke-miterlimit:10;"
       d="M 163.371039 8.919312 L 161.317694 16.00824 L 160.3888 13.248719 L 157.482611 13.368226 Z M 163.371039 8.919312 "
       transform="matrix(0.719101,0,0,0.719101,0.359551,0.359551)"
       id="path77" />
    <path
       style="fill:none;stroke-width:1;stroke-linecap:butt;stroke-linejoin:miter;stroke:rgb(0%,0%,0%);stroke-opacity:1;stroke-miterlimit:10;"
       d="M 54.000551 167.999213 L 54.000551 14.367737 "
       transform="matrix(0.719101,0,0,0.719101,0.359551,0.359551)"
       id="path79" />
    <path
       style="fill-rule:nonzero;fill:rgb(0%,0%,0%);fill-opacity:1;stroke-width:1;stroke-linecap:butt;stroke-linejoin:miter;stroke:rgb(0%,0%,0%);stroke-opacity:1;stroke-miterlimit:10;"
       d="M 54.000551 9.120301 L 56.330935 16.122315 L 54.000551 14.367737 L 51.670168 16.122315 Z M 54.000551 9.120301 "
       transform="matrix(0.719101,0,0,0.719101,0.359551,0.359551)"
       id="path81" />
    <path
       style="fill:none;stroke-width:1;stroke-linecap:butt;stroke-linejoin:miter;stroke:rgb(0%,0%,0%);stroke-opacity:1;stroke-miterlimit:10;"
       d="M 64.500857 8.001282 L 64.500857 18.001832 "
       transform="matrix(0.719101,0,0,0.719101,0.359551,0.359551)"
       id="path83" />
    <path
       style="fill:none;stroke-width:1;stroke-linecap:butt;stroke-linejoin:miter;stroke:rgb(0%,0%,0%);stroke-opacity:1;stroke-miterlimit:10;"
       d="M 65.000613 18.001832 L 53.53882 18.121339 "
       transform="matrix(0.719101,0,0,0.719101,0.359551,0.359551)"
       id="path85" />
    <g
       clip-path="url(#clip6)"
       clip-rule="nonzero"
       id="g89">
      <path
         style=" stroke:none;fill-rule:nonzero;fill:rgb(0%,0%,0%);fill-opacity:1;"
         d="M 48.058594 16.679688 C 48.070312 16.679688 48.4375 16.652344 49.167969 16.597656 C 49.894531 16.542969 50.269531 16.511719 50.289062 16.5 C 50.414062 16.5 50.476562 16.542969 50.476562 16.632812 C 50.476562 16.707031 50.101562 18.355469 49.351562 21.574219 C 48.601562 24.796875 48.21875 26.4375 48.199219 26.503906 C 48.175781 26.570312 48.171875 26.652344 48.183594 26.75 C 48.183594 27.207031 48.324219 27.4375 48.613281 27.4375 C 48.707031 27.425781 48.808594 27.375 48.921875 27.289062 C 49.136719 27.070312 49.347656 26.546875 49.550781 25.71875 C 49.613281 25.5 49.664062 25.386719 49.707031 25.375 C 49.726562 25.363281 49.777344 25.359375 49.859375 25.359375 L 49.980469 25.359375 C 50.136719 25.359375 50.214844 25.402344 50.214844 25.488281 C 50.214844 25.542969 50.199219 25.628906 50.167969 25.75 C 50.035156 26.296875 49.878906 26.738281 49.707031 27.078125 C 49.53125 27.414062 49.386719 27.632812 49.273438 27.730469 C 49.160156 27.828125 49.019531 27.917969 48.84375 27.992188 C 48.761719 28.015625 48.636719 28.027344 48.472656 28.027344 C 48.125 28.027344 47.832031 27.945312 47.597656 27.78125 C 47.359375 27.617188 47.207031 27.449219 47.136719 27.273438 L 47.042969 27.027344 C 47.03125 27.015625 47.011719 27.023438 46.980469 27.042969 C 46.960938 27.066406 46.941406 27.085938 46.921875 27.109375 C 46.316406 27.71875 45.699219 28.027344 45.074219 28.027344 C 44.507812 28.027344 44.011719 27.808594 43.582031 27.371094 C 43.148438 26.933594 42.933594 26.242188 42.933594 25.292969 C 42.933594 24.769531 43.039062 24.234375 43.242188 23.6875 C 43.449219 23.140625 43.695312 22.671875 43.980469 22.28125 C 44.464844 21.65625 44.945312 21.226562 45.425781 20.984375 C 45.910156 20.746094 46.347656 20.625 46.734375 20.625 C 47.308594 20.625 47.742188 20.855469 48.027344 21.3125 C 48.078125 21.378906 48.105469 21.402344 48.105469 21.378906 C 48.117188 21.335938 48.253906 20.742188 48.519531 19.59375 C 48.789062 18.449219 48.929688 17.84375 48.953125 17.777344 C 48.953125 17.636719 48.914062 17.546875 48.84375 17.515625 C 48.773438 17.484375 48.570312 17.457031 48.242188 17.433594 L 47.921875 17.433594 C 47.859375 17.367188 47.828125 17.324219 47.828125 17.300781 C 47.828125 17.28125 47.839844 17.175781 47.859375 16.992188 C 47.910156 16.785156 47.976562 16.679688 48.058594 16.679688 Z M 47.84375 22.523438 C 47.609375 21.664062 47.222656 21.230469 46.6875 21.230469 C 46.332031 21.230469 45.988281 21.402344 45.660156 21.738281 C 45.332031 22.078125 45.074219 22.519531 44.890625 23.066406 C 44.589844 23.925781 44.382812 24.824219 44.257812 25.75 C 44.257812 25.78125 44.257812 25.84375 44.257812 25.929688 C 44.257812 26.019531 44.253906 26.082031 44.242188 26.128906 C 44.242188 26.617188 44.335938 26.957031 44.519531 27.140625 C 44.703125 27.328125 44.925781 27.425781 45.179688 27.4375 C 45.734375 27.4375 46.304688 27.042969 46.890625 26.257812 L 47.011719 26.078125 Z M 47.84375 22.523438 "
         id="path87" />
    </g>
    <g
       clip-path="url(#clip7)"
       clip-rule="nonzero"
       id="g93">
      <path
         style="fill:none;stroke-width:7.329631;stroke-linecap:butt;stroke-linejoin:miter;stroke:rgb(0%,0%,0%);stroke-opacity:0.0157;stroke-miterlimit:4;"
         d="M 365.979594 683.044017 C 366.741154 683.044017 390.603359 684.71418 438.073918 688.054507 C 485.290624 691.394834 509.660536 693.303592 510.929802 694.019376 C 519.053106 694.019376 523.114759 691.394834 523.114759 685.907154 C 523.114759 681.373853 498.744846 580.686859 450.005021 384.084766 C 401.265196 187.244079 376.387577 87.034274 375.118311 82.978163 C 373.595191 78.922052 373.341338 73.911562 374.102898 67.946692 C 374.102898 40.031104 383.241615 25.954012 402.026756 25.954012 C 408.119234 26.669797 414.719419 29.771529 422.081163 35.020614 C 436.043092 48.381921 449.751168 80.35362 462.951537 130.935712 C 467.013189 144.29702 470.313282 151.216268 473.105667 151.932052 C 474.374934 152.647837 477.675026 152.886431 483.005944 152.886431 L 490.875395 152.886431 C 501.029525 152.886431 506.10659 150.261889 506.10659 145.012804 C 506.10659 141.672477 505.091177 136.423392 503.060351 129.026954 C 494.429341 95.623686 484.275211 68.662477 473.105667 47.904731 C 461.682271 27.385581 452.2897 14.024274 444.927956 8.059404 C 437.566212 2.094535 428.427494 -3.393145 417.004098 -7.926445 C 411.67318 -9.358014 403.549875 -10.073798 392.888039 -10.073798 C 370.295099 -10.073798 351.256105 -5.063308 336.02491 4.957672 C 320.539861 14.978653 310.639584 25.238228 306.070226 35.974993 L 299.977747 51.006463 C 299.216188 51.722248 297.946921 51.245058 295.916095 50.052084 C 294.646829 48.620516 293.377563 47.427542 292.108297 45.995973 C 252.761042 8.775189 212.652228 -10.073798 172.035707 -10.073798 C 135.226985 -10.073798 102.987622 3.287509 75.063764 30.010123 C 46.886052 56.732738 32.924123 98.964013 32.924123 156.942543 C 32.924123 188.914242 39.778161 221.601726 52.97853 255.004994 C 66.432753 288.408262 82.425508 317.039635 100.956796 340.899112 C 132.434599 379.074276 163.65855 405.319701 194.8825 420.112577 C 226.360304 434.666858 254.791868 442.063296 279.92334 442.063296 C 317.239769 442.063296 345.41748 427.986205 363.948768 400.070616 C 367.24886 396.014505 369.025833 394.582936 369.025833 396.014505 C 369.787393 398.639047 378.672257 434.905453 395.934278 505.052316 C 413.450152 574.960585 422.58887 611.942774 424.111989 615.998886 C 424.111989 624.588297 421.573457 630.075977 417.004098 631.984735 C 412.434739 633.893494 399.23437 635.563657 377.910697 636.995226 L 357.09473 636.995226 C 353.033078 641.051337 351.002252 643.675879 351.002252 645.107448 C 351.002252 646.300422 351.763811 652.742481 353.033078 663.956435 C 356.33317 676.601958 360.648675 683.044017 365.979594 683.044017 Z M 352.017665 326.106237 C 336.786469 378.597087 311.654997 405.081106 276.877101 405.081106 C 253.776455 405.081106 231.437369 394.582936 210.113695 374.063786 C 188.790022 353.306041 172.035707 326.344831 160.104604 292.941563 C 140.557903 240.450713 127.103681 185.573915 118.980377 129.026954 C 118.980377 127.118196 118.980377 123.30068 118.980377 118.051595 C 118.980377 112.563915 118.726523 108.746398 117.964964 105.883261 C 117.964964 76.058915 124.057442 55.301169 135.988545 44.087215 C 147.919648 32.634666 162.389283 26.669797 178.889745 25.954012 C 214.936907 25.954012 251.999482 50.052084 290.077471 98.009634 L 297.946921 108.984993 Z M 352.017665 326.106237 "
         transform="matrix(0.0153878,0,0,-0.0163719,42.426963,27.862417)"
         id="path91" />
    </g>
    <path
       style=" stroke:none;fill-rule:nonzero;fill:rgb(0%,0%,0%);fill-opacity:1;"
       d="M 51.917969 22.414062 C 51.925781 22.414062 52.1875 22.394531 52.703125 22.355469 C 53.21875 22.316406 53.480469 22.292969 53.496094 22.285156 C 53.582031 22.285156 53.628906 22.320312 53.628906 22.390625 C 53.628906 22.472656 53.496094 23.058594 53.234375 24.136719 C 52.960938 25.277344 52.820312 25.863281 52.820312 25.886719 C 52.820312 25.902344 52.847656 25.882812 52.898438 25.828125 C 53.339844 25.410156 53.8125 25.203125 54.3125 25.203125 C 54.703125 25.203125 55.019531 25.304688 55.257812 25.515625 C 55.5 25.722656 55.621094 26.027344 55.628906 26.429688 C 55.628906 26.824219 55.492188 27.433594 55.214844 28.257812 C 54.941406 29.082031 54.800781 29.578125 54.800781 29.738281 C 54.808594 29.847656 54.828125 29.921875 54.855469 29.960938 C 54.886719 29.996094 54.941406 30.015625 55.019531 30.015625 C 55.222656 30.015625 55.410156 29.902344 55.585938 29.671875 C 55.757812 29.4375 55.902344 29.121094 56.007812 28.722656 C 56.03125 28.636719 56.054688 28.585938 56.074219 28.570312 C 56.097656 28.554688 56.15625 28.546875 56.25 28.546875 C 56.394531 28.546875 56.464844 28.578125 56.464844 28.640625 C 56.464844 28.648438 56.453125 28.707031 56.421875 28.8125 C 56.308594 29.269531 56.121094 29.644531 55.867188 29.9375 C 55.621094 30.269531 55.328125 30.433594 54.988281 30.433594 L 54.933594 30.433594 C 54.589844 30.433594 54.34375 30.328125 54.191406 30.121094 C 54.039062 29.914062 53.964844 29.691406 53.964844 29.460938 C 53.964844 29.339844 54.09375 28.882812 54.355469 28.097656 C 54.617188 27.308594 54.75 26.71875 54.757812 26.324219 C 54.757812 25.871094 54.597656 25.640625 54.28125 25.640625 L 54.226562 25.640625 C 53.625 25.640625 53.101562 26.019531 52.660156 26.777344 L 52.582031 26.925781 L 52.210938 28.488281 C 51.980469 29.492188 51.847656 30.039062 51.808594 30.132812 C 51.714844 30.339844 51.554688 30.445312 51.332031 30.445312 C 51.230469 30.445312 51.144531 30.410156 51.070312 30.339844 C 50.996094 30.273438 50.957031 30.203125 50.949219 30.132812 C 50.949219 30.023438 51.214844 28.851562 51.746094 26.613281 L 52.550781 23.1875 C 52.550781 23.085938 52.523438 23.027344 52.472656 23.003906 C 52.421875 22.980469 52.28125 22.960938 52.050781 22.945312 L 51.820312 22.945312 C 51.777344 22.898438 51.757812 22.867188 51.757812 22.851562 C 51.757812 22.835938 51.761719 22.761719 51.777344 22.632812 C 51.8125 22.484375 51.859375 22.414062 51.917969 22.414062 Z M 51.917969 22.414062 "
       id="path95" />
    <g
       clip-path="url(#clip8)"
       clip-rule="nonzero"
       id="g99">
      <path
         style="fill:none;stroke-width:10.367229;stroke-linecap:butt;stroke-linejoin:miter;stroke:rgb(0%,0%,0%);stroke-opacity:0.0118;stroke-miterlimit:4;"
         d="M 136.897462 682.866955 C 137.615576 682.866955 161.67239 684.554329 209.067905 687.929078 C 256.463419 691.303827 280.520234 693.328677 281.956461 694.003627 C 289.855714 694.003627 294.164397 690.966352 294.164397 684.891804 C 294.164397 677.804831 281.956461 627.183596 257.899647 534.040522 C 232.765662 435.497851 219.839613 384.876615 219.839613 382.851766 C 219.839613 381.501866 222.353011 383.189241 227.020751 387.913889 C 267.594184 424.023704 311.040073 441.909874 356.99936 441.909874 C 392.905053 441.909874 421.988664 433.135526 443.891137 414.911882 C 466.152666 397.025712 477.283431 370.702669 478.001545 335.942754 C 478.001545 301.857789 465.434552 249.211704 439.94151 178.0045 C 414.807525 106.797295 401.881476 63.937982 401.881476 50.101511 C 402.59959 40.652214 404.394874 34.240191 406.908273 30.865442 C 409.780728 27.828168 414.807525 26.140793 421.988664 26.140793 C 440.659624 26.140793 457.894357 35.927565 474.051919 55.838585 C 489.850423 76.087079 503.13553 103.422546 512.830067 137.844986 C 514.984409 145.269434 517.13875 149.656608 518.934035 151.006507 C 521.088376 152.356407 526.47423 153.031357 535.091597 153.031357 C 548.376703 153.031357 554.839728 150.331558 554.839728 144.931959 C 554.839728 144.257009 553.762557 139.194886 550.890101 130.083063 C 540.477451 90.5985 523.242718 58.200909 499.904018 32.890291 C 477.283431 4.204924 450.354161 -9.969021 419.116208 -9.969021 L 414.089411 -9.969021 C 382.492402 -9.969021 359.871815 -0.857199 345.868595 17.028971 C 331.865375 34.915141 325.043293 54.15121 325.043293 74.062229 C 325.043293 84.523951 336.892172 124.008515 360.948986 191.840971 C 385.0058 260.010901 397.213736 310.969611 397.93185 345.054577 C 397.93185 384.201665 383.210515 404.112685 354.126904 404.112685 L 349.100107 404.112685 C 293.80534 404.112685 245.691712 371.377619 205.118279 305.907488 L 197.93714 293.083442 L 163.826732 158.09348 C 142.642373 71.36243 130.434437 24.115944 126.843868 16.016546 C 118.226502 -1.869624 103.505168 -10.981446 83.038923 -10.981446 C 73.703442 -10.981446 65.80419 -7.944172 58.982108 -1.869624 C 52.160027 3.86745 48.569457 9.941998 47.851344 16.016546 C 47.851344 25.465843 72.267215 126.708314 121.098957 320.081434 L 195.064685 616.046924 C 195.064685 624.821271 192.551286 629.883395 187.883546 631.908244 C 183.215806 633.933094 170.289756 635.620468 149.105398 636.970368 L 127.921039 636.970368 C 123.971413 641.020067 122.176128 643.719866 122.176128 645.069766 C 122.176128 646.419665 122.535185 652.831688 123.971413 663.96836 C 127.202925 676.792406 131.511608 682.866955 136.897462 682.866955 Z M 136.897462 682.866955 "
         transform="matrix(0.0108792,0,0,-0.0115749,50.428635,30.318203)"
         id="path97" />
    </g>
    <g
       clip-path="url(#clip9)"
       clip-rule="nonzero"
       id="g103">
      <path
         style=" stroke:none;fill-rule:nonzero;fill:rgb(0%,0%,0%);fill-opacity:1;"
         d="M 112.664062 22.691406 C 112.457031 22.691406 112.351562 22.644531 112.351562 22.550781 C 112.351562 22.371094 112.429688 22.132812 112.585938 21.828125 C 112.746094 21.527344 112.953125 21.207031 113.214844 20.875 C 113.476562 20.539062 113.804688 20.261719 114.203125 20.042969 C 114.597656 19.824219 115 19.703125 115.410156 19.683594 C 115.691406 19.683594 115.863281 19.6875 115.925781 19.699219 C 116.429688 19.8125 116.839844 20.097656 117.164062 20.546875 C 117.488281 20.992188 117.765625 21.679688 117.996094 22.597656 C 118.144531 23.222656 118.214844 23.667969 118.214844 23.929688 C 118.214844 23.96875 118.222656 23.992188 118.230469 23.992188 L 118.417969 23.566406 C 118.628906 23.035156 118.863281 22.476562 119.125 21.890625 C 119.386719 21.308594 119.613281 20.832031 119.800781 20.464844 C 119.988281 20.101562 120.101562 19.898438 120.144531 19.855469 C 120.164062 19.84375 120.25 19.839844 120.394531 19.839844 L 120.597656 19.839844 C 120.660156 19.902344 120.691406 19.949219 120.691406 19.980469 C 120.691406 20.023438 120.582031 20.253906 120.363281 20.671875 C 120.144531 21.089844 119.835938 21.75 119.4375 22.660156 C 119.042969 23.566406 118.664062 24.507812 118.308594 25.480469 C 118.246094 25.644531 118.179688 25.984375 118.105469 26.496094 C 118.03125 27.007812 117.921875 27.5625 117.777344 28.15625 C 117.609375 28.835938 117.46875 29.304688 117.355469 29.566406 C 117.238281 29.828125 117.097656 29.964844 116.929688 29.972656 C 116.753906 29.972656 116.664062 29.828125 116.664062 29.535156 C 116.664062 29.015625 116.945312 27.863281 117.511719 26.089844 L 117.605469 25.792969 L 117.621094 25.511719 C 117.628906 25.40625 117.636719 25.242188 117.636719 25.023438 C 117.636719 23.386719 117.339844 22.253906 116.742188 21.625 C 116.324219 21.230469 115.828125 21.03125 115.253906 21.03125 C 114.75 21.03125 114.292969 21.167969 113.871094 21.4375 C 113.453125 21.710938 113.15625 22.070312 112.980469 22.519531 C 112.957031 22.613281 112.9375 22.660156 112.917969 22.660156 C 112.894531 22.679688 112.8125 22.691406 112.664062 22.691406 Z M 112.664062 22.691406 "
         id="path101" />
    </g>
    <g
       clip-path="url(#clip10)"
       clip-rule="nonzero"
       id="g107">
      <path
         style="fill:none;stroke-width:7.653826;stroke-linecap:butt;stroke-linejoin:miter;stroke:rgb(0%,0%,0%);stroke-opacity:0.0157;stroke-miterlimit:4;"
         d="M 30.8889 248.964106 C 17.684058 248.964106 10.957062 251.956731 10.957062 257.941982 C 10.957062 269.413712 15.940022 284.626224 25.905941 304.078288 C 36.121008 323.280967 49.32585 343.730574 66.018764 364.928336 C 82.711679 386.375484 103.640108 404.08185 129.053202 418.047435 C 154.217147 432.01302 179.879388 439.743969 206.039926 440.990896 C 223.97858 440.990896 234.941091 440.74151 238.927458 439.993354 C 271.067547 432.761176 297.228084 414.556039 317.907366 385.876713 C 338.586648 357.446773 356.276154 313.554935 370.975884 254.949356 C 380.443507 215.047686 384.928171 186.617745 384.928171 169.908921 C 384.928171 167.415066 385.426467 165.918754 385.924763 165.918754 L 397.883866 193.101767 C 411.337856 227.018187 426.286735 262.680305 442.979649 300.088121 C 459.672563 337.246552 474.123145 367.671576 486.082248 391.113807 C 498.041351 414.306654 505.266642 427.274697 508.00727 430.017936 C 509.25301 430.766093 514.734265 431.015478 523.95274 431.015478 L 536.908435 431.015478 C 540.894802 427.025311 542.887986 424.032686 542.887986 422.037602 C 542.887986 419.294362 535.911843 404.580621 521.959556 377.896379 C 508.00727 351.212137 488.32458 309.065997 462.911487 250.959189 C 437.747541 193.101767 413.580188 132.999875 390.907722 70.9029 C 386.921355 60.428712 382.685839 38.732178 377.952028 6.062686 C 373.218216 -26.606807 366.242073 -62.01954 357.023598 -99.926127 C 346.310235 -143.319194 337.340908 -173.245447 330.115617 -189.954272 C 322.641177 -206.663096 313.67185 -215.391587 302.958487 -215.890358 C 291.746829 -215.890358 286.016425 -206.663096 286.016425 -187.959188 C 286.016425 -154.790924 303.955079 -81.222219 340.081536 31.998771 L 346.061087 50.952065 L 347.057679 68.907817 C 347.555975 75.641224 348.054271 86.115412 348.054271 100.080997 C 348.054271 204.573497 329.119025 276.895275 290.999385 317.046331 C 264.340552 342.234261 232.698759 354.952918 196.074007 354.952918 C 163.933918 354.952918 134.783605 346.224428 107.875624 329.016833 C 81.216791 311.559852 62.281545 288.616391 51.069886 259.937065 C 49.574998 253.951815 48.329258 250.959189 47.083518 250.959189 C 45.588631 249.712262 40.356523 248.964106 30.8889 248.964106 Z M 30.8889 248.964106 "
         transform="matrix(0.0156784,0,0,-0.0156635,112.179773,26.591057)"
         id="path105" />
    </g>
    <path
       style="fill-rule:nonzero;fill:rgb(0%,0%,0%);fill-opacity:1;stroke-width:7.653826;stroke-linecap:butt;stroke-linejoin:miter;stroke:rgb(0%,0%,0%);stroke-opacity:0.0157;stroke-miterlimit:4;"
       d="M 365.886633 682.894774 C 366.634077 682.894774 390.552282 684.640472 437.890397 687.882483 C 485.228512 691.373879 509.645014 693.368963 510.890753 694.117119 C 519.112637 694.117119 523.099004 691.373879 523.099004 685.8874 C 523.099004 681.398462 498.682503 580.646743 450.098648 383.88163 C 401.265645 187.365902 376.350848 87.112954 375.105108 83.122787 C 373.61022 78.883234 373.361072 73.895526 374.108516 67.910275 C 374.108516 39.979106 383.326991 26.013521 402.013089 26.013521 C 407.99264 26.761677 414.719636 29.754302 421.944927 34.991397 C 435.897213 48.208825 449.600352 80.379547 463.054342 131.004792 C 467.04071 144.22222 470.279634 151.454398 473.020261 151.953169 C 474.266001 152.701325 477.754073 152.950711 482.98618 152.950711 L 490.958915 152.950711 C 500.924834 152.950711 505.907794 150.456856 505.907794 144.970377 C 505.907794 141.728366 504.911202 136.241886 502.918018 129.009708 C 494.446987 95.592059 484.23192 68.658431 473.020261 47.95944 C 461.559455 27.260448 452.34098 14.04302 445.115688 8.057769 C 437.641249 2.072518 428.422774 -3.413961 416.961967 -7.902899 C 411.72986 -9.399212 403.757125 -9.897983 393.043762 -9.897983 C 370.371296 -9.897983 351.43605 -4.910274 335.988876 5.065144 C 320.790849 15.040561 310.575782 25.265365 306.091119 35.988939 L 300.111568 50.952065 C 299.364124 51.700221 298.118384 51.450836 295.876052 49.954523 C 294.630312 48.707596 293.384572 47.211283 291.889684 45.964356 C 252.773453 8.55654 212.660629 -9.897983 172.049509 -9.897983 C 135.424757 -9.897983 103.03552 3.319446 74.881799 30.003688 C 46.977226 56.68793 33.02494 99.083455 33.02494 156.940878 C 33.02494 189.1116 39.751935 221.781093 52.956778 254.949356 C 66.410768 288.367006 82.356238 317.046331 101.042337 340.987334 C 132.434981 378.893921 163.578478 405.328778 194.971123 420.042519 C 226.363767 434.75626 254.766636 441.988438 279.930582 441.988438 C 317.302778 441.988438 345.456499 428.022853 363.893449 400.091683 C 367.38152 396.101516 368.876408 394.605204 368.876408 396.101516 C 369.623852 398.595371 378.593179 435.005645 396.033537 505.082954 C 413.224748 574.910878 422.692371 612.069309 423.938111 616.059476 C 423.938111 624.787966 421.695779 630.025061 416.961967 632.020144 C 412.228156 634.015228 399.272461 635.760926 378.094883 637.007853 L 356.917306 637.007853 C 352.930938 640.99802 350.937754 643.74126 350.937754 644.988187 C 350.937754 646.235114 351.685198 652.719136 352.930938 663.941481 C 356.41901 676.660138 360.654525 682.894774 365.886633 682.894774 Z M 351.934346 326.024207 C 336.73632 378.644535 311.572374 405.079392 276.940806 405.079392 C 253.770044 405.079392 231.346727 394.605204 209.920001 373.906212 C 188.742423 353.456606 172.049509 326.273593 160.090406 293.105329 C 140.656864 240.235615 126.953726 185.620204 118.980991 129.009708 C 118.980991 127.014625 118.980991 123.273843 118.980991 118.036749 C 118.980991 112.550269 118.731843 108.560102 117.984399 106.066248 C 117.984399 75.890609 123.96395 55.441003 135.923053 43.969273 C 147.882156 32.746928 162.332738 26.761677 179.025652 26.013521 C 214.902961 26.013521 252.026009 49.954523 289.896501 98.085913 L 298.118384 109.058873 Z M 351.934346 326.024207 "
       transform="matrix(0.0156784,0,0,-0.0156635,120.693158,26.591057)"
       id="path109" />
    <path
       style="fill-rule:nonzero;fill:rgb(0%,0%,0%);fill-opacity:1;stroke-width:10.825779;stroke-linecap:butt;stroke-linejoin:miter;stroke:rgb(0%,0%,0%);stroke-opacity:0.0118;stroke-miterlimit:4;"
       d="M 73.101014 646.846318 C 73.101014 653.548331 74.158219 661.308557 76.977432 670.126995 C 79.796645 678.592695 83.673063 682.825545 88.959088 682.825545 C 89.663891 682.825545 113.627203 684.589233 160.849025 688.116608 C 208.423247 691.291246 232.738961 693.407671 234.148568 694.113146 C 241.901404 694.113146 246.130224 690.938508 246.130224 684.94197 C 246.130224 678.945432 234.500969 631.325868 211.947264 542.083276 C 206.661239 519.508075 201.022813 495.874661 195.031985 471.88851 C 189.041157 447.902359 184.107533 429.912746 179.878714 417.91967 L 176.002295 398.871844 C 176.002295 397.108157 178.116705 398.166369 181.993124 402.046482 C 214.766477 428.501796 248.244634 441.905821 283.132397 441.905821 C 324.36339 441.905821 357.841547 426.738108 382.862064 396.049944 C 408.234983 365.36178 421.273844 326.560654 421.978647 279.999301 C 421.978647 205.924423 395.548523 138.904295 343.040678 78.938917 C 290.18043 18.973539 233.796166 -11.009149 172.830681 -11.009149 C 139.704926 -11.009149 109.398384 1.689401 81.911055 27.086502 C 54.776128 52.483603 40.680062 93.401155 39.975259 149.839158 L 39.975259 159.010333 C 39.975259 173.119834 42.794472 192.16766 48.080496 216.859286 C 53.366521 241.550912 69.576997 307.16009 97.064326 414.039558 C 130.190081 545.257914 147.10536 615.099942 147.10536 622.860167 C 147.10536 630.97313 134.418901 635.558718 109.045982 636.969668 C 105.521965 636.969668 103.055154 636.969668 100.940744 636.969668 L 96.007121 636.969668 C 89.31149 636.969668 85.08267 636.969668 82.96826 636.969668 C 80.85385 636.969668 78.73944 638.027881 75.920227 640.144306 C 73.453415 641.907993 72.39621 644.377156 73.101014 646.846318 Z M 335.992645 325.149704 L 335.992645 331.146241 C 335.992645 380.176756 315.553349 404.868382 275.027159 404.868382 C 263.750306 404.868382 252.121052 402.39922 240.139396 397.108157 C 228.15774 391.817094 216.880887 384.762344 207.013641 375.943906 C 197.146394 367.478206 188.336353 359.365243 180.935919 351.957755 C 173.535484 344.550267 167.544656 337.495517 162.963434 330.088029 L 156.972606 321.975066 L 135.828507 235.907112 C 121.38004 178.763634 113.979605 137.846082 113.979605 113.859931 C 113.979605 82.113555 122.084843 58.127404 137.942917 41.901478 C 148.514967 31.319352 161.906229 26.02829 178.116705 26.02829 C 199.965608 26.02829 222.166912 36.610415 245.073019 58.127404 C 261.635896 73.295117 275.027159 91.990205 284.894405 113.859931 C 295.114053 136.082395 306.038504 171.003409 318.02016 218.975711 C 330.001817 266.948013 335.992645 302.221765 335.992645 325.149704 Z M 335.992645 325.149704 "
       transform="matrix(0.0110847,0,0,-0.0110741,128.845951,28.940584)"
       id="path111" />
    <path
       style="fill:none;stroke-width:1;stroke-linecap:butt;stroke-linejoin:miter;stroke:rgb(0%,0%,0%);stroke-opacity:1;stroke-miterlimit:10;"
       d="M 69.998171 144.999578 C 78.667849 144.999578 83.002689 148.334905 83.002689 155.000128 "
       transform="matrix(0.719101,0,0,0.719101,0.359551,0.359551)"
       id="path113" />
    <path
       style="fill:none;stroke-width:1;stroke-linecap:butt;stroke-linejoin:miter;stroke:rgb(0%,0%,0%);stroke-opacity:1;stroke-miterlimit:10;"
       d="M 52.001528 141.001531 L 56.999087 137.997564 C 60.334414 135.99854 63.501345 136.498296 66.49988 139.502263 L 70.997683 144.000066 "
       transform="matrix(0.719101,0,0,0.719101,0.359551,0.359551)"
       id="path115" />
  </g>
</svg>
